<svg width="164" height="27" viewBox="0 0 164 27" fill="none" xmlns="http://www.w3.org/2000/svg">
<path d="M1.42 26C1.156 26 0.94 25.916 0.772 25.748C0.604 25.58 0.52 25.364 0.52 25.1V1.7C0.52 1.436 0.604 1.22 0.772 1.052C0.94 0.883999 1.156 0.799998 1.42 0.799998H11.5C13.492 0.799998 15.22 1.112 16.684 1.736C18.172 2.336 19.324 3.248 20.14 4.472C20.98 5.696 21.4 7.244 21.4 9.116C21.4 10.964 20.98 12.488 20.14 13.688C19.324 14.888 18.172 15.776 16.684 16.352C15.22 16.928 13.492 17.216 11.5 17.216H7.216V25.1C7.216 25.364 7.12 25.58 6.928 25.748C6.76 25.916 6.544 26 6.28 26H1.42ZM7.108 12.248H11.32C12.352 12.248 13.168 11.984 13.768 11.456C14.392 10.928 14.704 10.124 14.704 9.044C14.704 8.132 14.44 7.364 13.912 6.74C13.384 6.116 12.52 5.804 11.32 5.804H7.108V12.248ZM35.1441 26.36C32.9361 26.36 31.0161 26 29.3841 25.28C27.7521 24.56 26.4801 23.48 25.5681 22.04C24.6561 20.576 24.1521 18.752 24.0561 16.568C24.0321 15.536 24.0201 14.504 24.0201 13.472C24.0201 12.44 24.0321 11.396 24.0561 10.34C24.1521 8.18 24.6561 6.368 25.5681 4.904C26.5041 3.416 27.7881 2.3 29.4201 1.556C31.0521 0.811999 32.9601 0.439999 35.1441 0.439999C37.3041 0.439999 39.2001 0.811999 40.8321 1.556C42.4881 2.3 43.7841 3.416 44.7201 4.904C45.6561 6.368 46.1601 8.18 46.2321 10.34C46.2801 11.396 46.3041 12.44 46.3041 13.472C46.3041 14.504 46.2801 15.536 46.2321 16.568C46.1361 18.752 45.6321 20.576 44.7201 22.04C43.8081 23.48 42.5361 24.56 40.9041 25.28C39.2721 26 37.3521 26.36 35.1441 26.36ZM35.1441 21.176C36.4161 21.176 37.4481 20.792 38.2401 20.024C39.0561 19.256 39.4881 18.032 39.5361 16.352C39.5841 15.296 39.6081 14.3 39.6081 13.364C39.6081 12.428 39.5841 11.456 39.5361 10.448C39.4881 9.32 39.2721 8.408 38.8881 7.712C38.5281 6.992 38.0241 6.464 37.3761 6.128C36.7281 5.792 35.9841 5.624 35.1441 5.624C34.3281 5.624 33.5961 5.792 32.9481 6.128C32.3001 6.464 31.7841 6.992 31.4001 7.712C31.0161 8.408 30.8001 9.32 30.7521 10.448C30.7281 11.456 30.7161 12.428 30.7161 13.364C30.7161 14.3 30.7281 15.296 30.7521 16.352C30.8241 18.032 31.2561 19.256 32.0481 20.024C32.8401 20.792 33.8721 21.176 35.1441 21.176ZM56.5343 26C56.2703 26 56.0543 25.916 55.8863 25.748C55.7183 25.58 55.6343 25.364 55.6343 25.1V6.452H49.2263C48.9623 6.452 48.7463 6.368 48.5783 6.2C48.4103 6.008 48.3263 5.792 48.3263 5.552V1.7C48.3263 1.436 48.4103 1.22 48.5783 1.052C48.7463 0.883999 48.9623 0.799998 49.2263 0.799998H68.5943C68.8583 0.799998 69.0743 0.883999 69.2423 1.052C69.4103 1.22 69.4943 1.436 69.4943 1.7V5.552C69.4943 5.792 69.4103 6.008 69.2423 6.2C69.0743 6.368 68.8583 6.452 68.5943 6.452H62.1863V25.1C62.1863 25.364 62.1023 25.58 61.9343 25.748C61.7663 25.916 61.5503 26 61.2863 26H56.5343ZM79.2101 26C78.9461 26 78.7301 25.916 78.5621 25.748C78.3941 25.58 78.3101 25.364 78.3101 25.1V6.452H71.9021C71.6381 6.452 71.4221 6.368 71.2541 6.2C71.0861 6.008 71.0021 5.792 71.0021 5.552V1.7C71.0021 1.436 71.0861 1.22 71.2541 1.052C71.4221 0.883999 71.6381 0.799998 71.9021 0.799998H91.2701C91.5341 0.799998 91.7501 0.883999 91.9181 1.052C92.0861 1.22 92.1701 1.436 92.1701 1.7V5.552C92.1701 5.792 92.0861 6.008 91.9181 6.2C91.7501 6.368 91.5341 6.452 91.2701 6.452H84.8621V25.1C84.8621 25.364 84.7781 25.58 84.6101 25.748C84.4421 25.916 84.2261 26 83.9621 26H79.2101ZM96.3419 26C96.0779 26 95.8619 25.916 95.6939 25.748C95.5259 25.58 95.4419 25.364 95.4419 25.1V1.7C95.4419 1.436 95.5259 1.22 95.6939 1.052C95.8619 0.883999 96.0779 0.799998 96.3419 0.799998H113.154C113.418 0.799998 113.634 0.883999 113.802 1.052C113.97 1.22 114.054 1.436 114.054 1.7V5.084C114.054 5.348 113.97 5.564 113.802 5.732C113.634 5.9 113.418 5.984 113.154 5.984H101.67V10.844H112.362C112.626 10.844 112.842 10.94 113.01 11.132C113.178 11.3 113.262 11.516 113.262 11.78V14.912C113.262 15.152 113.178 15.368 113.01 15.56C112.842 15.728 112.626 15.812 112.362 15.812H101.67V20.816H113.442C113.706 20.816 113.922 20.9 114.09 21.068C114.258 21.236 114.342 21.452 114.342 21.716V25.1C114.342 25.364 114.258 25.58 114.09 25.748C113.922 25.916 113.706 26 113.442 26H96.3419ZM119.334 26C119.07 26 118.854 25.916 118.686 25.748C118.518 25.58 118.434 25.364 118.434 25.1V1.7C118.434 1.436 118.518 1.22 118.686 1.052C118.854 0.883999 119.07 0.799998 119.334 0.799998H129.126C132.222 0.799998 134.658 1.52 136.434 2.96C138.234 4.376 139.134 6.392 139.134 9.008C139.134 10.712 138.714 12.152 137.874 13.328C137.058 14.504 135.978 15.392 134.634 15.992L139.602 24.848C139.674 24.992 139.71 25.124 139.71 25.244C139.71 25.436 139.626 25.616 139.458 25.784C139.314 25.928 139.134 26 138.918 26H134.166C133.71 26 133.374 25.892 133.158 25.676C132.942 25.436 132.786 25.22 132.69 25.028L128.586 17.108H124.878V25.1C124.878 25.364 124.794 25.58 124.626 25.748C124.458 25.916 124.242 26 123.978 26H119.334ZM124.878 12.032H129.054C130.182 12.032 131.022 11.756 131.574 11.204C132.15 10.652 132.438 9.896 132.438 8.936C132.438 8 132.162 7.244 131.61 6.668C131.082 6.092 130.23 5.804 129.054 5.804H124.878V12.032ZM149.72 26C149.48 26 149.264 25.916 149.072 25.748C148.904 25.58 148.82 25.364 148.82 25.1V17.36L140.468 1.952C140.444 1.88 140.42 1.82 140.396 1.772C140.372 1.7 140.36 1.628 140.36 1.556C140.36 1.364 140.432 1.196 140.576 1.052C140.744 0.883999 140.936 0.799998 141.152 0.799998H145.652C146.012 0.799998 146.288 0.895998 146.48 1.088C146.696 1.256 146.828 1.412 146.876 1.556L152.06 10.844L157.244 1.556C157.316 1.412 157.448 1.256 157.64 1.088C157.856 0.895998 158.144 0.799998 158.504 0.799998H163.004C163.22 0.799998 163.4 0.883999 163.544 1.052C163.688 1.196 163.76 1.364 163.76 1.556C163.76 1.628 163.748 1.7 163.724 1.772C163.724 1.82 163.712 1.88 163.688 1.952L155.3 17.36V25.1C155.3 25.364 155.216 25.58 155.048 25.748C154.88 25.916 154.664 26 154.4 26H149.72Z" fill="#F7F5F2"/>
</svg>
